<?xml version="1.0" encoding="UTF-8"?>
<svg xmlns="http://www.w3.org/2000/svg" xmlns:xlink="http://www.w3.org/1999/xlink" width="25px" height="25px" viewBox="0 0 25 25" version="1.1">
<g id="surface1">
<path style=" stroke:none;fill-rule:evenodd;fill:rgb(0%,0%,0%);fill-opacity:1;" d="M 16.960938 12.726562 C 17.105469 12.875 17.1875 13.074219 17.1875 13.28125 C 17.1875 13.488281 17.105469 13.6875 16.960938 13.835938 L 12.273438 18.523438 C 12.125 18.667969 11.925781 18.75 11.71875 18.75 C 11.511719 18.75 11.3125 18.667969 11.164062 18.523438 L 8.820312 16.179688 C 8.515625 15.871094 8.515625 15.378906 8.820312 15.070312 C 9.128906 14.765625 9.621094 14.765625 9.929688 15.070312 L 11.71875 16.863281 L 15.851562 12.726562 C 16 12.582031 16.199219 12.5 16.40625 12.5 C 16.613281 12.5 16.8125 12.582031 16.960938 12.726562 Z M 16.960938 12.726562 "/>
<path style=" stroke:none;fill-rule:nonzero;fill:rgb(0%,0%,0%);fill-opacity:1;" d="M 12.5 1.5625 C 14.65625 1.5625 16.40625 3.3125 16.40625 5.46875 L 16.40625 6.25 L 8.59375 6.25 L 8.59375 5.46875 C 8.59375 3.3125 10.34375 1.5625 12.5 1.5625 Z M 17.96875 6.25 L 17.96875 5.46875 C 17.96875 2.449219 15.519531 0 12.5 0 C 9.480469 0 7.03125 2.449219 7.03125 5.46875 L 7.03125 6.25 L 1.5625 6.25 L 1.5625 21.875 C 1.5625 23.601562 2.960938 25 4.6875 25 L 20.3125 25 C 22.039062 25 23.4375 23.601562 23.4375 21.875 L 23.4375 6.25 Z M 3.125 7.8125 L 21.875 7.8125 L 21.875 21.875 C 21.875 22.738281 21.175781 23.4375 20.3125 23.4375 L 4.6875 23.4375 C 3.824219 23.4375 3.125 22.738281 3.125 21.875 Z M 3.125 7.8125 "/>
</g>
</svg>
